<?xml version="1.0" encoding="utf-8"?>
<!-- Generator: Adobe Illustrator 26.2.1, SVG Export Plug-In . SVG Version: 6.00 Build 0)  -->
<svg version="1.1" id="Layer_1" xmlns="http://www.w3.org/2000/svg" xmlns:xlink="http://www.w3.org/1999/xlink" x="0px" y="0px"
	 viewBox="0 0 552 118" style="enable-background:new 0 0 552 118;" xml:space="preserve">
<style type="text/css">
	.st0{fill:#171717;}
</style>
<g>
	<path class="st0" d="M172.2,70.8V39.4h5.6V72c0,6.3-3.9,8.7-10.2,8.7h-2.2v-5h2.1C170.6,75.7,172.2,74.5,172.2,70.8z"/>
	<path class="st0" d="M184.3,80.8V39.4h17.4v4.9h-11.9v13h10v5h-10v13.6h12.1v4.9H184.3z"/>
	<path class="st0" d="M207.3,39.4h17.2v4.9h-11.6v13.3h9.8v5h-9.8v18.2h-5.6V39.4z"/>
	<path class="st0" d="M228.9,39.4h17.2v4.9h-11.6v13.3h9.8v5h-9.8v18.2h-5.6V39.4z"/>
	<path class="st0" d="M266.7,80.8l-5.7-17h-0.1h-4.8v17h-5.6V39.4h10.3c6.3,0,10,2.7,10,8.7v6.9c0,4.1-1.8,6.7-4.8,7.9l6.3,17.8
		H266.7z M256.1,59h4.6c3.1,0,4.7-1.2,4.7-4.9v-4.8c0-3.7-1.7-4.9-4.7-4.9h-4.6V59z"/>
	<path class="st0" d="M277.2,80.8V39.4h17.4v4.9h-11.9v13h10v5h-10v13.6h12.1v4.9H277.2z"/>
	<path class="st0" d="M311.9,80.8h-5.6V65.5l-8.6-26.1h5.9l5.6,20l5.6-20h5.7l-8.6,26.1V80.8z"/>
	<path class="st0" d="M353.8,48.1V72c0,6.1-3.8,8.7-10,8.7h-10.2V39.4h10.2C350,39.4,353.8,42,353.8,48.1z M343.5,44.3h-4.4v31.6
		h4.4c3.1,0,4.7-1.2,4.7-4.9V49.2C348.2,45.5,346.6,44.3,343.5,44.3z"/>
	<path class="st0" d="M360.2,80.8V39.4h17.4v4.9h-11.9v13h10v5h-10v13.6h12.1v4.9H360.2z"/>
	<path class="st0" d="M409.3,80.8h-16.7V39.4h5.6v36.4h11.2V80.8z"/>
	<path class="st0" d="M413.5,80.8V39.4H431v4.9h-11.9v13h10v5h-10v13.6h12.1v4.9H413.5z"/>
	<path class="st0" d="M446.3,38.9h0.5c6.3,0,10,2.7,10,8.7v24.8c0,6.1-3.8,8.7-10,8.7h-0.5c-6.3,0-10-2.7-10-8.7V47.7
		C436.2,41.5,440,38.9,446.3,38.9z M446.5,76.3c3.1,0,4.7-1.2,4.7-4.9V48.7c0-3.7-1.7-4.9-4.7-4.9c-3.1,0-4.7,1.2-4.7,4.9v22.7
		C441.8,75.1,443.4,76.3,446.5,76.3z"/>
	<path class="st0" d="M463.2,80.8V39.4h5.6l10.4,28.5V39.4h5.1v41.4H479l-10.6-29.4v29.4H463.2z"/>
</g>
<g>
	<path class="st0" d="M112.2,94.3h-1.8c-14.8,0-28.1-9.9-32.2-24.1l3.5-1c3.6,12.1,14.5,20.6,26.9,21.4V30.7
		c-9.3,0.6-17.8,5.4-23,13.2l-3-2C88.8,32.6,99.2,27,110.4,27h1.8V94.3z"/>
	<path class="st0" d="M115.2,94.3v-3.6c16.5,0,30-13.4,30-30c0-6-1.8-11.8-5.1-16.8c-5.6-8.3-14.9-13.2-24.9-13.2V27
		c11.2,0,21.6,5.5,27.9,14.8c3.8,5.6,5.7,12.1,5.7,18.8C148.9,79.2,133.8,94.3,115.2,94.3z"/>
	<path class="st0" d="M115.2,87.6V84c12.9,0,23.5-10.5,23.5-23.5c0-4.7-1.4-9.2-4-13.1c-4.4-6.5-11.7-10.4-19.5-10.4v-3.6
		c9,0,17.4,4.5,22.5,12c3,4.5,4.6,9.7,4.6,15.2C142.4,75.5,130.2,87.6,115.2,87.6z"/>
	<path class="st0" d="M115.2,80.8v-3.6c9.3,0,16.8-7.5,16.8-16.8c0-3.4-1-6.6-2.9-9.4c-3.1-4.6-8.3-7.4-13.9-7.4v-3.6
		c6.8,0,13.1,3.4,16.9,9c2.3,3.4,3.5,7.3,3.5,11.4C135.7,71.6,126.5,80.8,115.2,80.8z"/>
</g>
</svg>
