<?xml version="1.0" encoding="utf-8"?>
<!-- Generator: Adobe Illustrator 26.3.0, SVG Export Plug-In . SVG Version: 6.00 Build 0)  -->
<svg version="1.1" id="Layer_1" xmlns="http://www.w3.org/2000/svg" xmlns:xlink="http://www.w3.org/1999/xlink" x="0px" y="0px"
	 viewBox="0 0 100 100" style="enable-background:new 0 0 100 100;" xml:space="preserve">
<style type="text/css">
	.st0{fill:#171717;}
</style>
<g>
	<path class="st0" d="M52,85.3h-1.8c-14.8,0-28.1-9.9-32.2-24.1l3.5-1C25.1,72.3,36,80.8,48.4,81.6V21.7c-9.3,0.6-17.8,5.4-23,13.2
		l-3-2C28.6,23.6,39,18,50.2,18H52C52,18,52,85.3,52,85.3z"/>
	<path class="st0" d="M55,85.3v-3.6c16.5,0,30-13.4,30-30c0-6-1.8-11.8-5.1-16.8C74.3,26.6,65,21.7,55,21.7V18
		c11.2,0,21.6,5.5,27.9,14.8c3.8,5.6,5.7,12.1,5.7,18.8C88.7,70.2,73.6,85.3,55,85.3z"/>
	<path class="st0" d="M55,78.6V75c12.9,0,23.5-10.5,23.5-23.5c0-4.7-1.4-9.2-4-13.1C70.1,31.9,62.8,28,55,28v-3.6
		c9,0,17.4,4.5,22.5,12c3,4.5,4.6,9.7,4.6,15.2C82.2,66.5,70,78.6,55,78.6z"/>
	<path class="st0" d="M55,71.8v-3.6c9.3,0,16.8-7.5,16.8-16.8c0-3.4-1-6.6-2.9-9.4c-3.1-4.6-8.3-7.4-13.9-7.4V31
		c6.8,0,13.1,3.4,16.9,9c2.3,3.4,3.5,7.3,3.5,11.4C75.5,62.6,66.3,71.8,55,71.8z"/>
</g>
</svg>
